<svg id="svg" version="1.1" xmlns="http://www.w3.org/2000/svg" xmlns:xlink="http://www.w3.org/1999/xlink" width="400" height="400" viewBox="0, 0, 400,400"><g id="svgg"><path id="path0" d="M279.800 145.850 C 279.360 145.955,277.877 146.310,276.504 146.638 C 272.978 147.482,271.868 148.020,270.640 149.479 C 270.049 150.182,269.258 150.856,268.882 150.976 C 268.507 151.096,267.667 152.231,267.016 153.497 C 266.365 154.764,265.466 156.310,265.017 156.933 C 263.643 158.840,263.804 167.660,265.253 169.849 C 265.832 170.724,266.776 172.369,267.352 173.506 C 267.928 174.642,268.804 175.784,269.299 176.044 C 269.795 176.304,270.782 177.023,271.493 177.641 C 272.732 178.717,273.427 178.976,277.706 179.961 C 284.161 181.448,294.938 177.610,295.753 173.535 C 296.122 171.690,296.039 162.281,295.649 161.665 C 295.173 160.914,286.272 160.516,284.325 161.159 C 281.341 162.143,281.936 165.521,285.250 166.413 C 287.976 167.148,288.535 167.910,287.975 170.133 C 286.392 176.422,274.421 174.139,272.590 167.200 C 271.014 161.226,272.917 155.615,277.287 153.355 C 279.808 152.051,286.581 152.781,287.774 154.484 C 288.502 155.523,291.236 154.645,292.672 152.910 L 293.544 151.858 292.718 150.229 C 291.710 148.240,291.711 148.240,288.000 147.039 C 284.932 146.046,281.230 145.509,279.800 145.850 M312.220 146.787 C 308.982 147.754,308.058 148.208,307.267 149.218 C 306.733 149.901,305.881 150.617,305.375 150.809 C 304.870 151.002,304.072 151.933,303.604 152.880 C 303.136 153.826,302.358 155.320,301.876 156.200 C 300.757 158.244,300.560 167.828,301.601 169.647 C 304.829 175.290,304.672 175.084,307.156 176.910 C 311.637 180.203,316.698 181.098,322.687 179.657 C 327.354 178.533,332.008 174.657,333.233 170.873 C 333.495 170.063,334.156 168.509,334.702 167.420 C 335.997 164.838,335.834 160.922,334.294 157.600 C 333.733 156.390,332.962 154.639,332.580 153.709 C 332.199 152.779,331.417 151.717,330.843 151.350 C 330.269 150.983,329.307 150.098,328.705 149.383 C 326.038 146.216,318.241 144.988,312.220 146.787 M206.248 147.142 C 204.898 148.107,204.604 148.615,203.988 151.040 C 203.598 152.574,202.836 154.633,202.294 155.615 C 201.752 156.597,201.080 158.371,200.801 159.558 C 200.291 161.720,199.944 162.536,198.740 164.400 C 198.385 164.950,197.782 166.710,197.401 168.312 C 197.020 169.914,196.251 171.894,195.693 172.712 C 190.923 179.709,196.547 182.723,202.389 176.300 L 204.480 174.000 208.399 174.000 L 212.318 174.000 214.386 176.300 C 217.380 179.629,220.541 180.682,222.425 178.978 C 223.168 178.305,222.549 174.593,221.462 173.200 C 220.646 172.155,219.687 169.867,219.213 167.832 C 218.961 166.750,218.322 165.126,217.792 164.223 C 217.263 163.320,216.627 161.596,216.378 160.391 C 216.129 159.186,215.502 157.544,214.985 156.741 C 214.072 155.327,213.274 153.157,212.414 149.752 C 211.613 146.584,208.734 145.365,206.248 147.142 M229.900 147.031 L 228.400 148.012 228.400 163.226 L 228.400 178.441 229.834 179.040 C 231.213 179.616,234.037 179.522,235.092 178.865 C 235.354 178.702,235.583 175.981,235.688 171.800 C 235.874 164.415,235.973 163.923,237.400 163.273 C 238.531 162.757,238.877 163.007,242.007 166.600 C 243.158 167.920,245.593 170.620,247.420 172.600 C 249.247 174.580,251.118 176.682,251.577 177.271 C 253.321 179.507,255.033 180.197,256.826 179.388 L 258.400 178.679 258.400 163.381 L 258.400 148.084 256.750 147.267 C 255.155 146.478,255.039 146.474,253.250 147.137 L 251.400 147.823 251.200 154.748 C 251.007 161.427,250.966 161.700,250.056 162.436 C 248.716 163.520,248.228 163.403,246.851 161.665 C 246.182 160.820,244.952 159.425,244.117 158.565 C 241.068 155.423,236.191 149.926,235.873 149.272 C 235.616 148.744,232.613 146.536,231.600 146.130 C 231.490 146.086,230.725 146.491,229.900 147.031 M136.600 146.913 L 134.600 147.405 134.495 162.978 C 134.424 173.555,134.527 178.687,134.815 178.975 C 136.359 180.521,154.809 179.494,156.427 177.771 C 156.929 177.237,157.582 176.800,157.879 176.800 C 158.450 176.800,162.800 172.439,162.800 171.866 C 162.800 171.681,163.447 170.060,164.238 168.265 C 165.868 164.565,166.004 161.446,164.652 158.800 C 164.259 158.030,163.586 156.478,163.158 155.351 C 161.881 151.985,157.100 148.024,153.400 147.263 C 150.093 146.584,138.887 146.350,136.600 146.913 M173.900 147.246 C 171.117 149.322,172.896 152.800,176.742 152.800 C 178.673 152.800,179.269 152.972,180.142 153.781 L 181.200 154.762 181.183 161.681 C 181.156 172.373,180.685 173.600,176.615 173.600 C 175.102 173.600,174.148 173.350,173.187 172.700 L 171.856 171.800 170.828 172.804 C 170.263 173.356,169.375 174.082,168.855 174.417 L 167.909 175.025 169.148 176.862 C 169.830 177.872,170.886 178.876,171.494 179.093 C 175.491 180.522,177.142 180.715,179.372 180.014 C 180.047 179.802,181.089 179.529,181.687 179.409 C 186.862 178.370,188.895 171.826,188.708 156.807 L 188.600 148.200 186.815 147.300 C 184.253 146.008,175.608 145.972,173.900 147.246 M321.914 153.273 C 322.637 153.492,323.537 154.146,323.914 154.726 C 324.291 155.306,325.112 156.240,325.737 156.802 C 329.047 159.772,328.112 167.591,324.021 171.149 C 317.356 176.946,308.431 172.471,308.405 163.320 C 308.382 155.198,314.141 150.915,321.914 153.273 M150.472 153.161 C 156.075 154.463,159.378 162.466,156.617 168.050 C 154.438 172.459,145.959 175.221,143.169 172.431 L 142.000 171.262 142.000 162.825 L 142.000 154.388 143.300 153.596 C 144.709 152.737,147.831 152.547,150.472 153.161 M209.546 161.524 C 211.652 164.482,211.036 167.600,208.347 167.600 C 205.970 167.600,205.395 164.652,207.195 161.700 C 208.165 160.110,208.520 160.083,209.546 161.524 M169.271 217.008 C 166.235 217.748,164.830 218.397,164.359 219.276 C 164.134 219.698,163.396 220.379,162.721 220.790 C 155.388 225.249,155.862 240.432,163.540 246.986 C 167.056 249.987,173.720 251.524,178.200 250.368 C 179.080 250.141,180.397 249.801,181.126 249.614 C 189.858 247.367,194.749 234.900,190.315 226.191 C 186.115 217.942,178.703 214.707,169.271 217.008 M232.099 217.152 C 228.928 218.247,227.776 219.559,226.624 223.387 C 225.712 226.418,227.037 231.745,228.958 232.766 C 229.613 233.115,230.617 233.893,231.189 234.495 C 231.760 235.098,233.142 235.908,234.258 236.295 C 236.517 237.080,238.690 238.813,239.826 240.736 L 240.576 242.006 239.570 243.012 C 237.534 245.048,232.479 244.699,229.789 242.337 L 228.389 241.108 226.495 242.839 C 224.030 245.090,224.041 244.882,226.269 247.137 C 232.596 253.540,244.769 251.606,246.557 243.915 C 247.549 239.649,246.437 235.544,243.784 233.674 C 242.803 232.982,242.000 232.247,242.000 232.040 C 242.000 231.834,241.055 231.351,239.900 230.969 C 237.619 230.214,233.421 226.887,233.073 225.559 C 232.318 222.669,238.199 221.405,241.200 223.813 C 241.930 224.399,245.504 223.366,246.091 222.400 C 248.387 218.620,238.541 214.926,232.099 217.152 M137.300 217.579 C 134.281 219.459,135.790 222.766,139.678 222.787 C 144.197 222.813,145.215 226.410,144.196 238.759 C 143.773 243.875,141.069 245.478,136.656 243.228 L 135.143 242.457 133.371 243.705 C 131.331 245.143,131.305 245.256,132.518 247.400 C 135.833 253.259,146.737 251.335,150.276 244.267 L 151.711 241.400 151.896 229.897 L 152.081 218.393 150.541 217.703 C 148.042 216.585,139.033 216.500,137.300 217.579 M200.000 217.304 L 198.200 217.800 198.200 233.381 L 198.200 248.962 200.200 249.697 C 203.940 251.071,214.537 249.824,216.734 247.752 C 217.522 247.008,218.287 246.400,218.435 246.400 C 218.582 246.400,218.920 245.815,219.185 245.100 C 219.450 244.385,219.832 243.487,220.033 243.105 C 220.919 241.427,219.799 236.036,218.126 233.929 C 216.793 232.250,216.783 231.731,218.051 230.143 C 220.032 227.663,219.651 223.132,217.267 220.819 C 216.350 219.929,215.600 219.028,215.600 218.816 C 215.600 217.477,203.592 216.313,200.000 217.304 M177.642 223.205 C 184.480 225.104,186.633 235.915,181.233 241.234 C 173.770 248.585,163.558 241.590,165.603 230.528 C 166.148 227.581,169.472 223.506,171.673 223.086 C 173.432 222.750,176.204 222.806,177.642 223.205 M210.719 223.793 C 211.840 224.737,211.882 224.882,211.551 226.693 C 210.676 231.488,205.600 231.493,205.600 226.699 C 205.600 223.112,208.174 221.651,210.719 223.793 M212.620 237.681 C 215.436 240.685,210.938 245.733,207.177 243.788 C 204.782 242.550,204.892 237.627,207.339 236.598 C 208.679 236.035,211.648 236.644,212.620 237.681 " stroke="none" fill="#dcdcdf" fill-rule="evenodd"></path><path id="path1" d="M0.000 200.000 L 0.000 400.000 200.000 400.000 L 400.000 400.000 400.000 200.000 L 400.000 0.000 200.000 0.000 L 0.000 0.000 0.000 200.000 M96.959 140.843 C 97.642 141.613,98.723 142.502,99.362 142.821 C 100.001 143.139,100.766 143.979,101.061 144.686 C 101.357 145.393,101.955 146.162,102.390 146.395 C 104.078 147.298,104.192 148.098,104.400 160.600 L 104.600 172.600 107.802 175.800 C 109.563 177.560,111.493 179.354,112.090 179.786 C 116.504 182.980,115.428 191.704,110.320 194.130 C 109.103 194.708,108.030 195.532,107.800 196.065 C 107.580 196.575,106.838 197.354,106.151 197.796 C 104.553 198.825,104.406 200.067,104.383 212.759 C 104.362 224.030,104.181 225.262,102.290 226.994 C 101.522 227.697,100.770 228.664,100.618 229.143 C 100.466 229.622,99.614 230.385,98.724 230.839 C 97.835 231.293,96.723 232.101,96.253 232.636 C 94.434 234.709,85.711 234.948,83.742 232.979 C 81.117 230.354,82.755 222.130,86.236 220.454 C 89.974 218.655,90.192 218.481,90.669 216.928 C 90.955 215.997,91.151 212.325,91.169 207.526 C 91.186 203.195,91.367 199.212,91.572 198.673 C 91.777 198.135,92.133 196.341,92.363 194.687 C 92.875 191.001,93.319 189.976,94.761 189.148 C 96.739 188.013,96.694 184.001,94.697 183.367 C 92.781 182.759,91.635 176.312,91.244 163.954 L 90.971 155.309 89.786 154.282 C 89.134 153.717,87.493 152.678,86.140 151.974 C 83.126 150.406,82.800 149.746,82.800 145.203 C 82.800 139.581,84.125 138.730,92.111 139.222 C 95.616 139.438,95.754 139.484,96.959 140.843 M211.735 143.486 C 213.124 144.185,214.231 146.572,214.610 149.687 C 214.817 151.382,215.075 152.033,215.608 152.203 C 216.810 152.584,217.173 153.341,217.756 156.682 C 218.210 159.281,218.542 160.118,219.518 161.116 C 220.693 162.318,220.818 162.720,221.433 167.287 C 221.607 168.579,221.906 169.243,222.383 169.395 C 223.487 169.745,224.606 173.444,224.804 177.400 C 224.815 177.620,225.044 177.440,225.312 177.000 C 225.664 176.422,225.856 171.840,226.000 160.511 C 226.198 144.944,226.207 144.814,227.092 143.930 C 228.978 142.045,233.695 142.446,234.220 144.536 C 234.365 145.113,234.952 145.639,235.791 145.942 C 236.703 146.272,237.265 146.811,237.550 147.629 C 237.817 148.394,238.387 148.976,239.118 149.231 C 239.821 149.477,240.524 150.171,240.930 151.023 C 241.295 151.788,242.033 152.614,242.570 152.859 C 243.107 153.104,243.763 153.829,244.029 154.471 C 244.295 155.113,245.024 155.902,245.650 156.226 C 246.275 156.549,247.064 157.350,247.404 158.007 C 248.525 160.175,248.800 159.372,248.810 153.900 C 248.821 147.676,249.155 145.908,250.606 144.394 C 252.700 142.208,258.005 142.612,259.906 145.103 L 261.000 146.537 261.122 161.968 C 261.189 170.456,261.135 178.151,261.002 179.068 C 260.429 183.025,255.835 185.075,253.482 182.425 C 252.867 181.733,251.918 180.997,251.372 180.789 C 250.827 180.582,249.998 179.765,249.532 178.974 C 249.065 178.183,248.272 177.380,247.770 177.189 C 247.268 176.998,246.557 176.209,246.190 175.435 C 245.823 174.662,245.185 173.922,244.772 173.791 C 244.359 173.660,243.628 172.978,243.148 172.276 C 242.669 171.574,242.079 170.820,241.838 170.600 C 241.597 170.380,240.739 169.451,239.932 168.534 C 238.018 166.363,238.000 166.404,238.000 172.807 C 238.000 180.947,237.570 181.608,232.281 181.590 C 228.502 181.578,226.403 181.060,225.529 179.924 C 224.943 179.162,224.816 179.121,224.809 179.691 C 224.770 182.714,214.119 182.158,212.755 179.061 L 212.200 177.800 208.514 177.685 L 204.829 177.570 203.823 179.164 C 201.737 182.468,193.577 182.707,191.332 179.529 C 190.442 178.271,190.477 177.200,191.408 177.200 C 191.711 177.200,192.028 176.529,192.165 175.600 C 192.294 174.720,192.513 173.238,192.651 172.307 C 192.828 171.112,193.282 170.260,194.198 169.407 C 195.309 168.373,195.535 167.831,195.776 165.620 C 196.078 162.858,196.400 162.024,197.827 160.308 C 198.464 159.542,198.818 158.438,199.015 156.602 C 199.296 153.974,200.310 152.000,201.377 152.000 C 201.718 152.000,201.993 151.139,202.177 149.500 C 202.869 143.323,206.665 140.934,211.735 143.486 M287.763 143.577 C 288.522 144.046,289.201 144.569,289.272 144.738 C 289.342 144.907,290.388 145.397,291.596 145.826 C 293.163 146.383,293.941 146.916,294.310 147.686 C 294.594 148.280,295.361 149.300,296.014 149.952 C 297.577 151.516,297.513 152.085,295.600 153.600 C 294.720 154.297,294.000 155.088,294.000 155.357 C 294.000 158.223,286.168 158.716,285.460 155.895 C 284.979 153.980,278.826 154.065,277.884 156.000 C 277.616 156.550,276.824 157.270,276.125 157.600 C 274.615 158.312,274.411 158.907,274.410 162.600 C 274.408 167.101,274.731 168.369,275.953 168.663 C 277.638 169.068,280.818 170.782,281.062 171.416 C 281.424 172.360,282.302 172.089,283.064 170.799 C 283.454 170.139,284.094 169.497,284.487 169.373 C 285.955 168.907,284.938 168.000,282.947 168.000 C 280.303 168.000,279.200 166.655,279.200 163.428 C 279.200 159.419,280.581 158.824,289.918 158.810 C 295.947 158.800,296.051 158.815,297.055 159.819 L 298.074 160.838 297.911 168.319 C 297.729 176.688,297.662 176.986,295.806 177.598 C 294.945 177.882,294.314 178.442,294.000 179.200 C 293.465 180.491,292.326 180.973,288.827 181.389 C 287.589 181.536,286.460 181.912,286.204 182.262 C 284.944 183.986,278.156 184.173,276.818 182.521 C 276.405 182.012,275.436 181.613,274.183 181.436 C 270.882 180.971,269.722 180.459,269.219 179.245 C 268.963 178.629,268.184 177.872,267.486 177.562 C 266.606 177.173,266.102 176.594,265.844 175.677 C 265.617 174.871,265.044 174.133,264.379 173.789 C 262.693 172.917,262.400 171.380,262.402 163.440 C 262.405 155.175,262.717 153.470,264.385 152.608 C 265.128 152.224,265.630 151.575,265.806 150.771 C 265.997 149.905,266.441 149.376,267.272 149.027 C 267.927 148.751,268.678 148.092,268.941 147.563 C 269.243 146.953,270.088 146.380,271.245 146.000 C 272.250 145.670,273.655 144.905,274.367 144.300 C 275.079 143.695,276.143 143.094,276.731 142.965 C 277.319 142.836,277.980 142.658,278.200 142.569 C 279.510 142.041,286.464 142.774,287.763 143.577 M321.735 142.766 C 323.018 142.977,323.991 143.430,324.621 144.109 C 325.153 144.683,326.558 145.422,327.810 145.786 C 329.590 146.303,330.211 146.711,330.841 147.779 C 331.276 148.517,332.050 149.226,332.559 149.354 C 333.208 149.517,333.705 150.158,334.214 151.491 C 334.614 152.539,335.346 153.714,335.841 154.104 C 338.641 156.306,338.534 170.869,335.711 171.765 C 335.206 171.925,334.777 172.681,334.435 174.013 C 334.043 175.543,333.574 176.278,332.461 177.110 C 331.657 177.709,330.937 178.345,330.859 178.523 C 330.782 178.700,330.294 179.269,329.777 179.787 C 328.864 180.699,328.413 180.852,325.000 181.405 C 324.120 181.548,323.040 181.994,322.600 182.397 C 320.599 184.227,315.044 184.336,313.413 182.576 C 312.867 181.987,311.892 181.584,310.589 181.409 C 307.601 181.008,306.500 180.464,306.047 179.162 C 305.824 178.523,305.387 178.000,305.075 178.000 C 304.229 178.000,302.400 176.434,302.400 175.710 C 302.400 175.362,301.699 174.430,300.843 173.639 C 298.945 171.885,298.582 169.395,298.896 160.273 C 299.116 153.906,299.240 153.407,300.815 152.592 C 301.482 152.247,302.032 151.563,302.179 150.897 C 302.492 149.469,305.842 146.561,308.086 145.770 C 309.022 145.439,310.245 144.732,310.803 144.197 C 312.470 142.600,317.066 141.998,321.735 142.766 M151.530 143.549 C 152.042 143.830,152.807 144.407,153.230 144.830 C 153.654 145.254,154.495 145.601,155.100 145.602 C 157.257 145.607,159.305 146.475,160.831 148.032 C 161.677 148.894,162.565 149.600,162.806 149.600 C 163.047 149.600,163.665 150.552,164.180 151.716 C 164.695 152.880,165.416 154.082,165.784 154.387 C 168.778 156.871,168.612 171.600,165.591 171.600 C 165.108 171.600,164.797 171.872,164.791 172.300 C 164.771 173.911,163.220 176.375,161.534 177.474 C 160.584 178.093,159.431 178.998,158.972 179.484 C 157.402 181.148,156.245 181.318,145.128 181.509 L 134.456 181.692 133.428 180.664 L 132.400 179.636 132.400 163.267 C 132.400 143.960,132.472 143.556,136.002 143.075 C 138.945 142.673,150.585 143.029,151.530 143.549 M188.691 143.843 C 191.172 145.663,191.232 146.074,191.110 160.400 C 190.995 173.937,190.669 176.353,188.949 176.390 C 188.700 176.396,188.270 176.947,187.993 177.616 C 187.034 179.931,186.099 180.721,183.692 181.247 C 182.309 181.550,181.051 182.115,180.519 182.674 C 179.570 183.671,179.248 183.743,176.200 183.628 C 174.683 183.571,173.999 183.331,173.369 182.634 C 172.911 182.128,171.837 181.583,170.982 181.423 C 167.347 180.741,165.988 179.094,165.943 175.316 C 165.914 172.932,166.514 172.000,168.076 172.000 C 168.474 172.000,168.800 171.764,168.800 171.475 C 168.800 169.597,173.700 168.286,174.743 169.885 C 174.884 170.102,175.760 170.379,176.689 170.501 C 178.839 170.781,178.877 170.611,178.718 161.400 L 178.600 154.600 175.179 154.400 C 169.979 154.096,168.883 153.044,169.295 148.753 C 169.515 146.463,171.609 143.878,173.794 143.200 C 176.230 142.444,187.442 142.928,188.691 143.843 M144.580 154.907 C 144.286 155.675,144.520 169.856,144.833 170.167 C 145.559 170.890,152.070 169.073,152.923 167.908 C 153.406 167.251,154.205 166.557,154.700 166.366 C 157.528 165.278,155.069 159.058,150.818 156.547 C 150.148 156.151,149.600 155.596,149.600 155.314 C 149.600 155.015,149.120 154.800,148.450 154.800 C 147.817 154.800,146.740 154.688,146.056 154.551 C 145.148 154.370,144.750 154.466,144.580 154.907 M315.725 154.673 C 314.792 154.800,314.416 155.079,314.325 155.710 C 314.256 156.189,313.666 156.846,313.000 157.187 C 311.263 158.075,311.213 158.221,311.206 162.450 C 311.197 167.980,311.391 168.672,313.032 168.980 C 313.772 169.119,314.518 169.454,314.689 169.725 C 314.860 169.995,315.495 170.434,316.100 170.700 C 316.705 170.965,317.200 171.367,317.200 171.591 C 317.200 172.285,318.750 172.042,319.155 171.284 C 319.366 170.890,320.047 170.310,320.669 169.993 C 321.291 169.677,322.674 168.529,323.741 167.442 L 325.683 165.467 325.519 162.833 C 325.363 160.331,325.265 160.110,323.551 158.400 C 322.559 157.410,321.484 156.212,321.162 155.738 C 320.538 154.817,318.130 154.345,315.725 154.673 M72.574 162.963 C 73.348 163.287,74.046 163.926,74.211 164.463 C 74.369 164.979,75.107 165.964,75.849 166.654 C 77.769 168.436,77.859 172.203,76.025 174.036 C 75.379 174.683,74.737 175.569,74.598 176.006 C 73.724 178.760,65.352 179.213,61.937 176.692 C 58.933 174.473,58.175 168.163,60.657 166.037 C 61.322 165.467,61.984 164.677,62.128 164.283 C 62.756 162.551,69.537 161.694,72.574 162.963 M208.000 165.000 C 208.000 165.330,208.180 165.600,208.400 165.600 C 208.620 165.600,208.800 165.330,208.800 165.000 C 208.800 164.670,208.620 164.400,208.400 164.400 C 208.180 164.400,208.000 164.670,208.000 165.000 M71.603 194.448 C 77.443 198.877,79.085 203.525,75.880 206.553 C 75.154 207.239,74.211 208.392,73.784 209.116 C 73.357 209.841,72.646 210.506,72.204 210.595 C 68.165 211.407,63.775 211.013,63.083 209.776 C 62.859 209.377,61.869 208.266,60.883 207.307 L 59.089 205.564 59.296 202.255 C 59.523 198.621,59.941 197.643,61.722 196.591 C 62.376 196.205,63.283 195.509,63.739 195.045 C 65.714 193.033,69.371 192.755,71.603 194.448 M180.426 214.300 C 181.094 215.015,182.036 215.601,182.520 215.602 C 184.509 215.607,186.476 216.467,187.135 217.620 C 187.501 218.260,188.320 218.999,188.955 219.263 C 189.761 219.598,190.403 220.383,191.081 221.864 C 191.615 223.030,192.239 224.100,192.467 224.242 C 195.056 225.842,195.236 239.710,192.703 242.403 C 192.206 242.931,191.526 244.091,191.191 244.981 C 190.761 246.122,190.144 246.836,189.098 247.399 C 188.282 247.839,187.410 248.693,187.159 249.298 C 186.713 250.375,183.930 251.600,181.927 251.600 C 181.527 251.600,181.200 251.783,181.200 252.006 C 181.200 254.479,170.841 254.812,168.200 252.423 C 167.760 252.025,166.442 251.476,165.271 251.203 C 163.507 250.791,163.039 250.492,162.539 249.453 C 162.208 248.764,161.366 247.930,160.668 247.600 C 159.824 247.201,159.272 246.566,159.017 245.701 C 158.807 244.986,158.307 244.298,157.907 244.170 C 154.690 243.149,154.714 223.643,157.934 222.621 C 158.350 222.489,158.853 221.800,159.052 221.091 C 159.309 220.173,159.845 219.588,160.907 219.067 C 161.728 218.664,162.400 218.107,162.400 217.829 C 162.400 216.907,163.772 216.089,166.125 215.608 C 167.499 215.327,168.547 214.883,168.685 214.522 C 169.542 212.291,178.393 212.123,180.426 214.300 M241.476 214.076 C 242.094 214.665,243.582 215.474,244.782 215.874 C 246.834 216.557,247.013 216.724,247.801 218.699 C 248.261 219.854,248.835 220.995,249.076 221.236 C 249.393 221.553,249.096 222.302,248.001 223.952 C 246.006 226.955,245.753 227.130,242.974 227.441 C 239.384 227.843,239.064 228.222,241.672 228.980 C 243.420 229.488,244.018 229.872,244.374 230.716 C 244.626 231.312,245.396 232.070,246.086 232.400 C 247.019 232.846,247.463 233.430,247.821 234.677 C 248.086 235.599,248.786 236.770,249.378 237.279 C 251.013 238.686,251.082 242.640,249.500 244.294 C 248.895 244.926,248.400 245.562,248.400 245.707 C 248.400 247.694,246.639 250.351,244.890 251.002 C 243.851 251.389,242.543 252.129,241.984 252.647 C 239.664 254.798,232.009 254.870,229.900 252.761 C 229.272 252.133,228.034 251.425,227.149 251.186 C 225.050 250.621,222.949 248.427,222.267 246.089 L 221.728 244.240 221.473 245.832 C 220.998 248.803,218.529 250.808,214.638 251.379 C 213.559 251.538,212.149 252.057,211.505 252.534 C 210.444 253.319,209.841 253.400,205.067 253.400 C 198.811 253.400,198.074 253.232,196.785 251.514 L 195.800 250.200 195.800 233.526 L 195.800 216.853 196.977 215.624 C 199.208 213.295,206.019 212.739,209.515 214.600 C 210.548 215.150,212.025 215.601,212.797 215.602 C 215.252 215.606,217.152 216.347,217.769 217.541 C 218.083 218.148,218.807 218.857,219.378 219.117 C 219.949 219.377,220.604 220.084,220.833 220.688 C 221.268 221.830,221.387 230.174,220.978 230.836 C 220.341 231.867,221.324 235.698,222.551 236.964 C 223.238 237.673,223.988 238.583,224.218 238.986 C 224.595 239.647,224.830 239.673,226.618 239.251 C 229.102 238.665,230.860 239.125,232.436 240.775 C 233.796 242.197,234.953 242.549,236.600 242.040 C 237.260 241.836,237.582 241.653,237.315 241.634 C 237.049 241.615,236.021 240.813,235.032 239.852 C 233.810 238.664,232.642 237.954,231.391 237.639 C 230.029 237.296,229.373 236.867,228.874 235.990 C 228.503 235.338,227.988 234.804,227.729 234.803 C 227.059 234.799,225.600 232.835,225.600 231.937 C 225.600 231.522,225.162 230.983,224.627 230.740 C 222.115 229.595,221.874 223.752,224.233 221.200 C 224.742 220.650,225.422 219.566,225.746 218.792 C 226.512 216.958,227.431 216.173,229.436 215.639 C 230.337 215.399,231.417 214.821,231.836 214.354 C 233.623 212.368,239.506 212.198,241.476 214.076 M149.963 214.036 C 150.763 214.276,152.044 214.983,152.809 215.607 L 154.200 216.743 154.200 229.884 C 154.200 243.258,153.847 246.400,152.346 246.400 C 152.163 246.400,151.579 247.258,151.047 248.307 C 150.168 250.042,148.162 251.600,146.807 251.600 C 146.606 251.600,145.960 252.046,145.372 252.591 C 143.343 254.471,137.535 254.558,135.148 252.744 C 134.407 252.180,133.104 251.468,132.252 251.162 C 128.842 249.934,127.791 244.204,130.709 242.746 C 131.428 242.387,132.424 241.487,132.921 240.746 C 134.202 238.839,136.007 238.694,137.575 240.374 C 139.553 242.491,141.812 242.180,142.146 239.744 C 142.471 237.372,142.475 229.062,142.153 226.709 L 141.906 224.906 138.453 224.695 C 132.761 224.347,131.026 222.063,132.952 217.453 C 134.326 214.166,143.946 212.233,149.963 214.036 M173.604 224.780 C 172.610 224.937,172.063 225.304,171.703 226.057 C 171.410 226.670,170.551 227.373,169.657 227.731 C 167.156 228.731,166.721 238.392,169.150 239.002 C 170.484 239.337,171.194 239.932,171.632 241.084 C 172.871 244.343,181.702 239.189,182.282 234.868 C 182.662 232.032,182.131 230.525,180.103 228.684 C 179.083 227.758,177.788 226.539,177.224 225.975 C 175.946 224.697,175.360 224.504,173.604 224.780 M236.009 224.696 L 234.618 224.864 236.581 225.811 C 238.680 226.822,239.200 226.784,239.200 225.619 C 239.200 224.954,238.337 224.304,237.667 224.464 C 237.520 224.499,236.774 224.604,236.009 224.696 M208.000 226.000 C 208.000 226.660,208.180 227.200,208.400 227.200 C 208.620 227.200,208.800 226.945,208.800 226.633 C 208.800 226.321,208.909 225.781,209.043 225.433 C 209.202 225.018,209.065 224.800,208.643 224.800 C 208.195 224.800,208.000 225.164,208.000 226.000 M208.000 239.933 C 208.000 242.115,208.147 242.391,209.164 242.125 C 209.759 241.970,209.834 241.682,209.607 240.438 C 209.053 237.408,208.000 237.077,208.000 239.933 " stroke="none" fill="#04143c" fill-rule="evenodd"></path><path id="path2" d="M87.546 141.256 C 86.342 141.690,86.000 142.825,86.000 146.394 L 86.000 148.689 88.351 149.942 C 89.644 150.631,91.334 151.894,92.105 152.748 L 93.508 154.301 93.707 165.450 C 93.891 175.805,94.273 179.600,95.133 179.600 C 95.295 179.600,95.765 180.171,96.177 180.869 C 96.589 181.567,97.533 182.808,98.273 183.628 L 99.619 185.118 98.243 187.859 C 97.486 189.367,96.401 191.037,95.833 191.570 C 94.114 193.184,93.904 194.689,93.739 206.600 C 93.558 219.677,93.597 219.526,89.789 222.007 C 85.916 224.531,85.848 224.649,86.107 228.426 C 86.229 230.206,86.438 231.772,86.573 231.906 C 87.141 232.474,91.422 232.420,92.400 231.833 C 92.950 231.502,93.850 231.003,94.400 230.724 C 94.950 230.445,95.490 230.103,95.600 229.964 C 95.710 229.825,96.380 229.415,97.088 229.052 C 97.797 228.689,98.560 228.048,98.786 227.627 C 99.011 227.206,99.421 226.618,99.697 226.320 C 102.554 223.240,102.795 221.947,102.798 209.687 C 102.800 198.165,102.906 197.525,105.159 195.466 C 105.842 194.842,106.400 194.188,106.400 194.012 C 106.400 193.835,106.985 193.410,107.700 193.066 C 110.778 191.585,112.800 188.989,112.800 186.519 L 112.800 184.265 108.163 179.756 C 102.537 174.284,102.822 175.199,102.810 162.573 C 102.799 152.231,102.437 149.681,100.761 148.166 C 100.296 147.745,99.570 146.725,99.149 145.900 C 98.728 145.075,98.228 144.400,98.037 144.400 C 97.846 144.400,96.784 143.777,95.678 143.016 C 94.571 142.255,93.246 141.546,92.733 141.441 C 90.445 140.974,88.520 140.905,87.546 141.256 M66.298 164.292 C 65.158 164.411,64.660 164.708,64.236 165.524 C 63.928 166.116,63.209 167.036,62.638 167.570 C 60.811 169.277,61.461 172.394,64.282 175.446 C 65.611 176.884,71.641 176.696,72.437 175.191 C 75.110 170.135,73.963 165.299,69.880 164.415 C 68.824 164.187,67.924 164.030,67.880 164.067 C 67.836 164.104,67.124 164.205,66.298 164.292 M66.514 196.780 C 61.822 197.532,60.250 203.084,63.689 206.757 C 68.337 211.719,75.259 207.315,73.611 200.444 C 72.972 197.783,72.509 197.416,68.800 196.636 C 68.470 196.566,67.441 196.631,66.514 196.780 " stroke="none" fill="#04c4ec" fill-rule="evenodd"></path><path id="path3" d="M86.552 139.280 C 83.475 139.720,82.800 140.786,82.800 145.203 C 82.800 149.746,83.126 150.406,86.140 151.974 C 87.493 152.678,89.134 153.717,89.786 154.282 L 90.971 155.309 91.244 163.954 C 91.635 176.312,92.781 182.759,94.697 183.367 C 96.694 184.001,96.739 188.013,94.761 189.148 C 93.319 189.976,92.875 191.001,92.363 194.687 C 92.133 196.341,91.777 198.135,91.572 198.673 C 91.367 199.212,91.186 203.195,91.169 207.526 C 91.151 212.325,90.955 215.997,90.669 216.928 C 90.192 218.481,89.974 218.655,86.236 220.454 C 82.755 222.130,81.117 230.354,83.742 232.979 C 85.711 234.948,94.434 234.709,96.253 232.636 C 96.723 232.101,97.835 231.293,98.724 230.839 C 99.614 230.385,100.466 229.622,100.618 229.143 C 100.770 228.664,101.522 227.697,102.290 226.994 C 104.181 225.262,104.362 224.030,104.383 212.759 C 104.406 200.067,104.553 198.825,106.151 197.796 C 106.838 197.354,107.580 196.575,107.800 196.065 C 108.030 195.532,109.103 194.708,110.320 194.130 C 115.428 191.704,116.504 182.980,112.090 179.786 C 111.493 179.354,109.563 177.560,107.802 175.800 L 104.600 172.600 104.400 160.600 C 104.192 148.098,104.078 147.298,102.390 146.395 C 101.955 146.162,101.357 145.393,101.061 144.686 C 100.766 143.979,100.001 143.139,99.362 142.821 C 98.723 142.502,97.642 141.613,96.959 140.843 C 95.591 139.301,91.107 138.627,86.552 139.280 M93.621 140.867 C 96.710 141.944,101.926 147.167,102.886 150.144 C 103.109 150.835,103.407 156.440,103.548 162.600 C 103.691 168.832,103.981 174.084,104.202 174.439 C 104.421 174.791,106.370 176.771,108.533 178.839 C 113.721 183.801,114.740 186.235,113.020 189.560 C 112.390 190.779,109.823 193.200,109.161 193.200 C 108.936 193.200,107.637 194.307,106.275 195.659 L 103.800 198.118 103.599 209.959 L 103.398 221.800 102.301 224.035 C 98.285 232.221,85.542 236.622,84.653 230.131 C 83.935 224.895,84.156 224.436,88.883 221.340 C 92.978 218.659,92.800 219.237,92.802 208.611 C 92.803 196.684,93.324 193.116,95.413 190.703 C 96.225 189.767,97.222 188.117,97.630 187.037 L 98.370 185.074 96.318 182.706 C 93.357 179.287,93.151 178.246,92.905 165.442 L 92.699 154.684 90.849 152.954 C 89.832 152.002,88.460 151.001,87.800 150.729 C 87.140 150.457,86.381 150.046,86.114 149.817 C 85.847 149.588,85.352 149.168,85.014 148.884 C 84.368 148.341,84.207 145.821,84.648 143.152 C 85.050 140.725,89.768 139.524,93.621 140.867 M207.400 142.688 C 203.704 143.445,202.710 144.741,202.177 149.500 C 201.993 151.139,201.718 152.000,201.377 152.000 C 200.310 152.000,199.296 153.974,199.015 156.602 C 198.818 158.438,198.464 159.542,197.827 160.308 C 196.400 162.024,196.078 162.858,195.776 165.620 C 195.535 167.831,195.309 168.373,194.198 169.407 C 193.282 170.260,192.828 171.112,192.651 172.307 C 192.513 173.238,192.294 174.720,192.165 175.600 C 192.028 176.529,191.711 177.200,191.408 177.200 C 190.477 177.200,190.442 178.271,191.332 179.529 C 193.577 182.707,201.737 182.468,203.823 179.164 L 204.829 177.570 208.514 177.685 L 212.200 177.800 212.755 179.061 C 214.119 182.158,224.770 182.714,224.809 179.691 C 224.816 179.121,224.943 179.162,225.529 179.924 C 226.403 181.060,228.502 181.578,232.281 181.590 C 237.570 181.608,238.000 180.947,238.000 172.807 C 238.000 166.404,238.018 166.363,239.932 168.534 C 240.739 169.451,241.597 170.380,241.838 170.600 C 242.079 170.820,242.669 171.574,243.148 172.276 C 243.628 172.978,244.359 173.660,244.772 173.791 C 245.185 173.922,245.823 174.662,246.190 175.435 C 246.557 176.209,247.268 176.998,247.770 177.189 C 248.272 177.380,249.065 178.183,249.532 178.974 C 249.998 179.765,250.827 180.582,251.372 180.789 C 251.918 180.997,252.867 181.733,253.482 182.425 C 255.835 185.075,260.429 183.025,261.002 179.068 C 261.135 178.151,261.189 170.456,261.122 161.968 L 261.000 146.537 259.906 145.103 C 258.005 142.612,252.700 142.208,250.606 144.394 C 249.155 145.908,248.821 147.676,248.810 153.900 C 248.800 159.372,248.525 160.175,247.404 158.007 C 247.064 157.350,246.275 156.549,245.650 156.226 C 245.024 155.902,244.295 155.113,244.029 154.471 C 243.763 153.829,243.107 153.104,242.570 152.859 C 242.033 152.614,241.295 151.788,240.930 151.023 C 240.524 150.171,239.821 149.477,239.118 149.231 C 238.387 148.976,237.817 148.394,237.550 147.629 C 237.265 146.811,236.703 146.272,235.791 145.942 C 234.952 145.639,234.365 145.113,234.220 144.536 C 233.695 142.446,228.978 142.045,227.092 143.930 C 226.207 144.814,226.198 144.944,226.000 160.511 C 225.856 171.840,225.664 176.422,225.312 177.000 C 225.044 177.440,224.815 177.620,224.804 177.400 C 224.606 173.444,223.487 169.745,222.383 169.395 C 221.906 169.243,221.607 168.579,221.433 167.287 C 220.818 162.720,220.693 162.318,219.518 161.116 C 218.542 160.118,218.210 159.281,217.756 156.682 C 217.173 153.341,216.810 152.584,215.608 152.203 C 215.075 152.033,214.817 151.382,214.610 149.687 C 213.982 144.528,211.271 141.896,207.400 142.688 M278.200 142.569 C 277.980 142.658,277.319 142.836,276.731 142.965 C 276.143 143.094,275.079 143.695,274.367 144.300 C 273.655 144.905,272.250 145.670,271.245 146.000 C 270.088 146.380,269.243 146.953,268.941 147.563 C 268.678 148.092,267.927 148.751,267.272 149.027 C 266.441 149.376,265.997 149.905,265.806 150.771 C 265.630 151.575,265.128 152.224,264.385 152.608 C 262.717 153.470,262.405 155.175,262.402 163.440 C 262.400 171.380,262.693 172.917,264.379 173.789 C 265.044 174.133,265.617 174.871,265.844 175.677 C 266.102 176.594,266.606 177.173,267.486 177.562 C 268.184 177.872,268.963 178.629,269.219 179.245 C 269.722 180.459,270.882 180.971,274.183 181.436 C 275.436 181.613,276.405 182.012,276.818 182.521 C 278.156 184.173,284.944 183.986,286.204 182.262 C 286.460 181.912,287.589 181.536,288.827 181.389 C 292.326 180.973,293.465 180.491,294.000 179.200 C 294.314 178.442,294.945 177.882,295.806 177.598 C 297.662 176.986,297.729 176.688,297.911 168.319 L 298.074 160.838 297.055 159.819 C 296.051 158.815,295.947 158.800,289.918 158.810 C 280.581 158.824,279.200 159.419,279.200 163.428 C 279.200 166.655,280.303 168.000,282.947 168.000 C 284.938 168.000,285.955 168.907,284.487 169.373 C 284.094 169.497,283.454 170.139,283.064 170.799 C 282.302 172.089,281.424 172.360,281.062 171.416 C 280.818 170.782,277.638 169.068,275.953 168.663 C 274.731 168.369,274.408 167.101,274.410 162.600 C 274.411 158.907,274.615 158.312,276.125 157.600 C 276.824 157.270,277.616 156.550,277.884 156.000 C 278.826 154.065,284.979 153.980,285.460 155.895 C 286.168 158.716,294.000 158.223,294.000 155.357 C 294.000 155.088,294.720 154.297,295.600 153.600 C 297.513 152.085,297.577 151.516,296.014 149.952 C 295.361 149.300,294.594 148.280,294.310 147.686 C 293.941 146.916,293.163 146.383,291.596 145.826 C 290.388 145.397,289.342 144.907,289.272 144.738 C 288.654 143.258,280.470 141.655,278.200 142.569 M313.409 142.853 C 312.533 143.058,311.361 143.663,310.803 144.197 C 310.245 144.732,309.022 145.439,308.086 145.770 C 305.842 146.561,302.492 149.469,302.179 150.897 C 302.032 151.563,301.482 152.247,300.815 152.592 C 299.240 153.407,299.116 153.906,298.896 160.273 C 298.582 169.395,298.945 171.885,300.843 173.639 C 301.699 174.430,302.400 175.362,302.400 175.710 C 302.400 176.434,304.229 178.000,305.075 178.000 C 305.387 178.000,305.824 178.523,306.047 179.162 C 306.500 180.464,307.601 181.008,310.589 181.409 C 311.892 181.584,312.867 181.987,313.413 182.576 C 315.044 184.336,320.599 184.227,322.600 182.397 C 323.040 181.994,324.120 181.548,325.000 181.405 C 328.413 180.852,328.864 180.699,329.777 179.787 C 330.294 179.269,330.782 178.700,330.859 178.523 C 330.937 178.345,331.657 177.709,332.461 177.110 C 333.574 176.278,334.043 175.543,334.435 174.013 C 334.777 172.681,335.206 171.925,335.711 171.765 C 338.534 170.869,338.641 156.306,335.841 154.104 C 335.346 153.714,334.614 152.539,334.214 151.491 C 333.705 150.158,333.208 149.517,332.559 149.354 C 332.050 149.226,331.276 148.517,330.841 147.779 C 330.211 146.711,329.590 146.303,327.810 145.786 C 326.558 145.422,325.153 144.683,324.621 144.109 C 323.186 142.562,317.414 141.915,313.409 142.853 M136.002 143.075 C 132.472 143.556,132.400 143.960,132.400 163.267 L 132.400 179.636 133.428 180.664 L 134.456 181.692 145.128 181.509 C 156.245 181.318,157.402 181.148,158.972 179.484 C 159.431 178.998,160.584 178.093,161.534 177.474 C 163.220 176.375,164.771 173.911,164.791 172.300 C 164.797 171.872,165.108 171.600,165.591 171.600 C 168.612 171.600,168.778 156.871,165.784 154.387 C 165.416 154.082,164.695 152.880,164.180 151.716 C 163.665 150.552,163.047 149.600,162.806 149.600 C 162.565 149.600,161.677 148.894,160.831 148.032 C 159.305 146.475,157.257 145.607,155.100 145.602 C 154.495 145.601,153.654 145.254,153.230 144.830 C 151.608 143.208,150.773 143.039,144.000 142.960 C 140.370 142.918,136.771 142.970,136.002 143.075 M173.794 143.200 C 171.609 143.878,169.515 146.463,169.295 148.753 C 168.883 153.044,169.979 154.096,175.179 154.400 L 178.600 154.600 178.718 161.400 C 178.877 170.611,178.839 170.781,176.689 170.501 C 175.760 170.379,174.884 170.102,174.743 169.885 C 173.700 168.286,168.800 169.597,168.800 171.475 C 168.800 171.764,168.474 172.000,168.076 172.000 C 166.514 172.000,165.914 172.932,165.943 175.316 C 165.988 179.094,167.347 180.741,170.982 181.423 C 171.837 181.583,172.911 182.128,173.369 182.634 C 173.999 183.331,174.683 183.571,176.200 183.628 C 179.248 183.743,179.570 183.671,180.519 182.674 C 181.051 182.115,182.309 181.550,183.692 181.247 C 186.099 180.721,187.034 179.931,187.993 177.616 C 188.270 176.947,188.700 176.396,188.949 176.390 C 190.669 176.353,190.995 173.937,191.110 160.400 C 191.261 142.675,191.496 143.093,181.291 142.928 C 177.831 142.871,174.457 142.994,173.794 143.200 M286.522 144.858 C 287.139 145.297,288.579 145.931,289.722 146.267 C 292.251 147.010,292.963 147.612,294.178 150.030 L 295.118 151.903 293.353 154.151 C 292.383 155.388,291.343 156.400,291.044 156.400 C 290.745 156.400,289.947 156.511,289.271 156.646 C 288.227 156.855,287.845 156.682,286.721 155.493 C 282.648 151.183,274.093 154.616,273.467 160.813 C 273.042 165.017,274.028 169.600,275.358 169.600 C 275.611 169.600,276.488 170.152,277.307 170.827 C 280.771 173.683,285.481 173.263,286.302 170.025 C 286.787 168.116,286.569 167.855,283.919 167.188 C 280.208 166.254,279.427 162.309,282.600 160.517 C 285.219 159.037,294.197 159.145,296.018 160.677 L 297.298 161.754 297.122 168.539 L 296.945 175.325 295.857 176.162 C 295.258 176.623,294.100 177.545,293.284 178.211 C 287.911 182.595,274.968 182.727,270.247 178.446 C 267.682 176.120,266.567 174.922,265.915 173.789 C 265.538 173.135,264.818 172.092,264.315 171.471 C 262.378 169.082,262.880 155.992,264.984 154.015 C 265.508 153.523,266.146 152.614,266.402 151.994 C 267.105 150.297,271.281 146.969,273.702 146.175 C 274.856 145.797,276.258 145.167,276.818 144.775 C 278.774 143.406,284.549 143.455,286.522 144.858 M322.870 144.850 C 323.477 145.282,324.912 145.914,326.060 146.255 C 328.954 147.114,332.867 150.864,333.983 153.847 C 334.423 155.021,335.136 156.336,335.569 156.769 C 337.208 158.408,337.295 167.593,335.687 169.310 C 335.229 169.799,334.469 171.100,333.998 172.200 C 332.539 175.611,331.398 176.802,326.850 179.659 C 324.918 180.873,318.331 182.102,316.136 181.658 C 315.071 181.443,313.061 181.038,311.670 180.757 C 309.758 180.372,308.731 179.890,307.470 178.786 C 306.551 177.982,305.397 177.111,304.904 176.850 C 304.411 176.589,303.716 175.797,303.358 175.088 C 303.001 174.380,302.301 173.350,301.803 172.800 C 299.024 169.729,298.752 156.933,301.404 154.000 C 301.902 153.450,302.583 152.460,302.918 151.800 C 303.883 149.898,307.540 147.014,310.000 146.213 C 311.210 145.819,312.508 145.229,312.884 144.901 C 314.589 143.416,320.811 143.384,322.870 144.850 M211.007 145.259 C 212.780 146.816,213.440 148.057,213.811 150.534 C 213.983 151.678,214.509 152.943,215.110 153.658 C 215.726 154.390,216.498 156.274,217.084 158.478 C 217.613 160.467,218.413 162.591,218.861 163.197 C 219.309 163.803,220.026 165.626,220.454 167.249 C 220.883 168.872,221.594 170.699,222.035 171.309 C 223.079 172.752,224.400 177.978,223.946 178.869 C 222.325 182.050,216.561 181.401,213.375 177.679 L 211.938 176.000 208.480 176.000 L 205.023 176.000 202.767 178.233 C 199.671 181.297,194.613 181.917,192.985 179.433 C 192.228 178.278,193.454 172.454,194.757 171.019 C 195.885 169.777,196.281 168.801,196.591 166.501 C 196.747 165.346,197.293 163.786,197.803 163.033 C 198.314 162.281,199.203 160.119,199.779 158.230 C 200.356 156.341,201.250 154.173,201.766 153.411 C 202.283 152.650,202.826 151.346,202.973 150.514 C 203.965 144.892,207.761 142.410,211.007 145.259 M233.269 145.300 C 235.579 147.218,236.679 148.316,240.000 152.020 C 244.886 157.470,248.163 160.991,248.475 161.128 C 249.337 161.506,250.000 158.087,250.001 153.251 C 250.004 145.893,252.147 143.520,256.935 145.572 C 260.117 146.936,260.000 146.258,260.000 163.309 C 260.000 180.511,260.011 180.443,257.149 181.214 C 254.271 181.989,253.057 181.110,246.069 173.200 C 244.028 170.890,241.673 168.280,240.834 167.400 C 239.995 166.520,239.194 165.470,239.054 165.067 C 238.067 162.225,236.873 166.732,236.832 173.456 C 236.790 180.339,236.614 180.604,232.112 180.590 C 229.479 180.581,228.770 180.434,227.841 179.704 L 226.728 178.828 226.781 163.532 C 226.842 146.137,226.979 145.230,229.669 144.456 C 231.609 143.897,231.566 143.886,233.269 145.300 M149.294 145.210 C 150.232 145.436,152.510 145.976,154.356 146.411 C 158.575 147.404,162.255 150.313,163.936 153.984 C 164.491 155.197,165.266 156.533,165.657 156.953 C 167.163 158.570,167.222 167.961,165.733 169.179 C 165.316 169.521,164.557 170.692,164.046 171.783 C 163.056 173.897,160.548 177.200,159.932 177.200 C 159.728 177.200,158.480 177.962,157.158 178.894 L 154.756 180.589 145.004 180.739 L 135.253 180.890 134.227 179.863 L 133.200 178.836 133.214 163.318 C 133.230 146.025,133.207 146.183,135.857 145.362 C 137.787 144.764,147.006 144.660,149.294 145.210 M186.841 145.451 C 190.068 146.507,190.064 146.484,189.922 160.381 C 189.817 170.616,189.709 172.423,189.162 173.059 C 188.811 173.466,188.119 174.657,187.624 175.704 C 184.701 181.892,173.682 183.682,168.767 178.767 C 166.226 176.226,166.279 175.089,169.057 172.566 C 171.782 170.090,171.818 170.081,173.791 171.420 C 174.966 172.217,175.694 172.414,177.120 172.320 C 179.545 172.161,179.659 171.725,179.737 162.268 C 179.810 153.546,179.833 153.600,176.084 153.600 C 172.282 153.600,170.806 152.423,170.814 149.400 C 170.826 145.384,179.843 143.163,186.841 145.451 M144.067 154.336 C 142.886 155.244,142.845 168.721,144.017 171.000 C 145.458 173.806,153.713 170.835,155.825 166.751 C 156.984 164.510,156.265 158.265,154.795 157.798 C 154.419 157.679,153.460 156.877,152.663 156.016 C 151.490 154.748,150.854 154.405,149.308 154.208 C 148.258 154.074,146.860 153.887,146.200 153.792 C 145.438 153.682,144.659 153.881,144.067 154.336 M315.310 153.988 C 309.492 155.371,307.906 166.095,312.874 170.461 C 316.504 173.652,319.214 173.516,323.157 169.945 C 330.448 163.342,324.746 151.747,315.310 153.988 M148.450 154.800 C 149.120 154.800,149.600 155.015,149.600 155.314 C 149.600 155.596,150.148 156.151,150.818 156.547 C 155.069 159.058,157.528 165.278,154.700 166.366 C 154.205 166.557,153.406 167.251,152.923 167.908 C 152.070 169.073,145.559 170.890,144.833 170.167 C 144.520 169.856,144.286 155.675,144.580 154.907 C 144.750 154.466,145.148 154.370,146.056 154.551 C 146.740 154.688,147.817 154.800,148.450 154.800 M321.162 155.738 C 321.484 156.212,322.559 157.410,323.551 158.400 C 325.265 160.110,325.363 160.331,325.519 162.833 L 325.683 165.467 323.741 167.442 C 322.674 168.529,321.291 169.677,320.669 169.993 C 320.047 170.310,319.366 170.890,319.155 171.284 C 318.750 172.042,317.200 172.285,317.200 171.591 C 317.200 171.367,316.705 170.965,316.100 170.700 C 315.495 170.434,314.860 169.995,314.689 169.725 C 314.518 169.454,313.772 169.119,313.032 168.980 C 311.391 168.672,311.197 167.980,311.206 162.450 C 311.213 158.221,311.263 158.075,313.000 157.187 C 313.666 156.846,314.256 156.189,314.325 155.710 C 314.554 154.125,320.084 154.148,321.162 155.738 M63.694 162.999 C 62.975 163.311,62.271 163.889,62.128 164.283 C 61.984 164.677,61.322 165.467,60.657 166.037 C 58.175 168.163,58.933 174.473,61.937 176.692 C 65.352 179.213,73.724 178.760,74.598 176.006 C 74.737 175.569,75.379 174.683,76.025 174.036 C 77.859 172.203,77.769 168.436,75.849 166.654 C 75.107 165.964,74.369 164.979,74.211 164.463 C 73.620 162.541,66.901 161.605,63.694 162.999 M207.612 163.571 C 207.034 164.966,207.412 166.496,208.291 166.323 C 209.406 166.103,209.785 165.012,209.220 163.647 C 208.577 162.095,208.230 162.079,207.612 163.571 M71.621 164.011 C 73.859 165.209,76.275 170.972,75.100 172.309 C 74.766 172.689,74.113 173.756,73.648 174.681 C 72.466 177.033,69.046 177.875,65.111 176.782 C 61.437 175.762,59.433 169.460,62.000 167.000 C 62.660 166.368,63.200 165.624,63.200 165.348 C 63.200 163.828,69.432 162.839,71.621 164.011 M208.800 165.000 C 208.800 165.330,208.620 165.600,208.400 165.600 C 208.180 165.600,208.000 165.330,208.000 165.000 C 208.000 164.670,208.180 164.400,208.400 164.400 C 208.620 164.400,208.800 164.670,208.800 165.000 M65.784 193.709 C 65.115 193.979,64.195 194.580,63.739 195.045 C 63.283 195.509,62.376 196.205,61.722 196.591 C 59.941 197.643,59.523 198.621,59.296 202.255 L 59.089 205.564 60.883 207.307 C 61.869 208.266,62.859 209.377,63.083 209.776 C 63.775 211.013,68.165 211.407,72.204 210.595 C 72.646 210.506,73.357 209.841,73.784 209.116 C 74.211 208.392,75.154 207.239,75.880 206.553 C 78.283 204.282,77.689 199.820,74.607 197.000 C 70.641 193.371,68.552 192.592,65.784 193.709 M71.717 196.532 C 72.898 197.032,73.419 197.595,74.073 199.086 C 74.535 200.139,75.101 201.121,75.330 201.269 C 76.678 202.139,73.009 208.559,70.800 209.193 C 67.212 210.224,65.210 209.698,62.837 207.102 C 57.309 201.055,63.888 193.224,71.717 196.532 M170.160 213.353 C 169.478 213.660,168.814 214.186,168.685 214.522 C 168.547 214.883,167.499 215.327,166.125 215.608 C 163.772 216.089,162.400 216.907,162.400 217.829 C 162.400 218.107,161.728 218.664,160.907 219.067 C 159.845 219.588,159.309 220.173,159.052 221.091 C 158.853 221.800,158.350 222.489,157.934 222.621 C 154.714 223.643,154.690 243.149,157.907 244.170 C 158.307 244.298,158.807 244.986,159.017 245.701 C 159.272 246.566,159.824 247.201,160.668 247.600 C 161.366 247.930,162.208 248.764,162.539 249.453 C 163.039 250.492,163.507 250.791,165.271 251.203 C 166.442 251.476,167.760 252.025,168.200 252.423 C 170.841 254.812,181.200 254.479,181.200 252.006 C 181.200 251.783,181.527 251.600,181.927 251.600 C 183.930 251.600,186.713 250.375,187.159 249.298 C 187.410 248.693,188.282 247.839,189.098 247.399 C 190.144 246.836,190.761 246.122,191.191 244.981 C 191.526 244.091,192.206 242.931,192.703 242.403 C 195.236 239.710,195.056 225.842,192.467 224.242 C 192.239 224.100,191.615 223.030,191.081 221.864 C 190.403 220.383,189.761 219.598,188.955 219.263 C 188.320 218.999,187.501 218.260,187.135 217.620 C 186.476 216.467,184.509 215.607,182.520 215.602 C 182.036 215.601,181.094 215.015,180.426 214.300 C 178.999 212.771,172.734 212.193,170.160 213.353 M233.400 213.158 C 232.960 213.349,232.256 213.888,231.836 214.354 C 231.417 214.821,230.337 215.399,229.436 215.639 C 227.431 216.173,226.512 216.958,225.746 218.792 C 225.422 219.566,224.742 220.650,224.233 221.200 C 221.874 223.752,222.115 229.595,224.627 230.740 C 225.162 230.983,225.600 231.522,225.600 231.937 C 225.600 232.835,227.059 234.799,227.729 234.803 C 227.988 234.804,228.503 235.338,228.874 235.990 C 229.373 236.867,230.029 237.296,231.391 237.639 C 232.642 237.954,233.810 238.664,235.032 239.852 C 236.021 240.813,237.049 241.615,237.315 241.634 C 237.582 241.653,237.260 241.836,236.600 242.040 C 234.953 242.549,233.796 242.197,232.436 240.775 C 230.860 239.125,229.102 238.665,226.618 239.251 C 224.830 239.673,224.595 239.647,224.218 238.986 C 223.988 238.583,223.238 237.673,222.551 236.964 C 221.324 235.698,220.341 231.867,220.978 230.836 C 221.387 230.174,221.268 221.830,220.833 220.688 C 220.604 220.084,219.949 219.377,219.378 219.117 C 218.807 218.857,218.083 218.148,217.769 217.541 C 217.152 216.347,215.252 215.606,212.797 215.602 C 212.025 215.601,210.548 215.150,209.515 214.600 C 206.019 212.739,199.208 213.295,196.977 215.624 L 195.800 216.853 195.800 233.526 L 195.800 250.200 196.785 251.514 C 198.074 253.232,198.811 253.400,205.067 253.400 C 209.841 253.400,210.444 253.319,211.505 252.534 C 212.149 252.057,213.559 251.538,214.638 251.379 C 218.529 250.808,220.998 248.803,221.473 245.832 L 221.728 244.240 222.267 246.089 C 222.949 248.427,225.050 250.621,227.149 251.186 C 228.034 251.425,229.272 252.133,229.900 252.761 C 232.009 254.870,239.664 254.798,241.984 252.647 C 242.543 252.129,243.851 251.389,244.890 251.002 C 246.639 250.351,248.400 247.694,248.400 245.707 C 248.400 245.562,248.895 244.926,249.500 244.294 C 251.082 242.640,251.013 238.686,249.378 237.279 C 248.786 236.770,248.086 235.599,247.821 234.677 C 247.463 233.430,247.019 232.846,246.086 232.400 C 245.396 232.070,244.626 231.312,244.374 230.716 C 244.018 229.872,243.420 229.488,241.672 228.980 C 239.064 228.222,239.384 227.843,242.974 227.441 C 245.753 227.130,246.006 226.955,248.001 223.952 C 249.096 222.302,249.393 221.553,249.076 221.236 C 248.835 220.995,248.261 219.854,247.801 218.699 C 247.013 216.724,246.834 216.557,244.782 215.874 C 243.582 215.474,242.094 214.665,241.476 214.076 C 240.272 212.928,235.244 212.357,233.400 213.158 M135.652 214.888 C 132.590 216.660,131.497 219.893,132.985 222.771 C 133.745 224.241,134.316 224.442,138.453 224.695 L 141.906 224.906 142.153 226.709 C 142.475 229.062,142.471 237.372,142.146 239.744 C 141.812 242.180,139.553 242.491,137.575 240.374 C 136.007 238.694,134.202 238.839,132.921 240.746 C 132.424 241.487,131.428 242.387,130.709 242.746 C 127.791 244.204,128.842 249.934,132.252 251.162 C 133.104 251.468,134.407 252.180,135.148 252.744 C 137.535 254.558,143.343 254.471,145.372 252.591 C 145.960 252.046,146.606 251.600,146.807 251.600 C 148.162 251.600,150.168 250.042,151.047 248.307 C 151.579 247.258,152.163 246.400,152.346 246.400 C 153.847 246.400,154.200 243.258,154.200 229.884 L 154.200 216.743 152.809 215.607 C 149.706 213.075,139.523 212.648,135.652 214.888 M178.584 215.179 C 178.813 215.365,180.342 215.914,181.982 216.400 C 185.488 217.438,189.985 221.277,190.829 223.952 C 191.080 224.749,191.760 226.102,192.339 226.960 C 193.335 228.436,193.392 228.784,193.379 233.360 L 193.367 238.200 191.461 241.800 C 188.920 246.599,185.623 249.585,181.400 250.910 C 180.300 251.255,178.590 251.840,177.600 252.208 C 175.718 252.909,172.008 252.829,171.072 252.068 C 170.813 251.856,169.319 251.304,167.753 250.841 C 163.188 249.489,157.690 243.687,156.769 239.250 C 156.115 236.098,156.487 227.413,157.354 225.600 C 159.371 221.383,164.039 217.189,167.800 216.214 C 169.340 215.815,170.870 215.257,171.200 214.974 C 172.305 214.025,177.334 214.165,178.584 215.179 M239.411 214.947 C 239.845 215.248,241.207 215.784,242.437 216.140 C 248.920 218.012,249.193 223.821,242.896 225.925 C 241.722 226.318,241.532 226.267,240.977 225.421 C 239.732 223.521,235.957 223.055,234.428 224.612 C 233.857 225.194,233.878 225.313,234.660 225.926 C 235.133 226.297,236.210 227.140,237.053 227.800 C 237.896 228.460,239.340 229.292,240.263 229.650 C 249.651 233.288,251.179 248.046,242.455 250.832 C 241.655 251.088,240.417 251.649,239.705 252.078 C 234.604 255.155,222.800 249.077,222.800 243.374 C 222.800 242.827,222.565 242.400,222.264 242.400 C 221.687 242.400,220.800 244.028,220.800 245.087 C 220.800 246.140,216.573 249.923,214.897 250.370 C 208.533 252.067,199.236 251.987,197.717 250.222 L 196.800 249.155 196.800 233.447 L 196.800 217.739 197.832 216.770 C 199.066 215.611,206.941 215.386,212.400 216.354 C 218.931 217.513,222.877 225.439,219.442 230.500 C 218.666 231.643,218.579 232.016,218.984 232.456 C 219.534 233.053,221.321 237.499,221.775 239.400 C 222.415 242.076,224.393 242.750,226.473 241.000 C 228.138 239.599,228.155 239.602,231.832 242.200 C 233.261 243.209,237.636 243.339,238.565 242.400 C 239.482 241.473,236.155 238.122,233.550 237.348 C 228.223 235.766,222.476 226.923,224.693 223.719 C 225.119 223.104,225.781 221.790,226.165 220.800 C 227.178 218.184,228.585 216.902,231.268 216.149 C 232.543 215.791,233.791 215.251,234.042 214.949 C 234.640 214.228,238.372 214.227,239.411 214.947 M149.981 216.033 C 153.262 216.737,153.200 216.473,153.200 229.843 L 153.200 241.507 151.613 244.677 C 149.782 248.336,148.068 250.074,145.395 250.981 C 144.353 251.335,143.123 251.889,142.661 252.212 C 141.609 252.949,138.833 252.975,137.789 252.258 C 137.355 251.959,136.084 251.415,134.965 251.047 C 132.453 250.222,130.963 248.721,130.470 246.519 L 130.094 244.838 132.415 242.819 C 135.033 240.543,135.376 240.450,136.671 241.667 C 137.301 242.259,138.266 242.589,139.713 242.709 C 142.943 242.977,142.974 242.895,143.143 233.733 C 143.313 224.458,143.170 224.001,140.091 223.998 C 133.441 223.990,131.195 218.670,136.812 216.233 C 138.496 215.503,146.912 215.375,149.981 216.033 M173.307 224.002 C 172.280 224.154,171.180 224.666,170.507 225.306 C 169.898 225.885,168.860 226.803,168.200 227.345 L 167.000 228.330 167.000 233.416 L 167.000 238.502 169.381 240.632 C 173.092 243.952,176.639 243.824,180.256 240.238 C 183.913 236.614,184.337 229.805,181.050 227.511 C 179.823 226.654,179.491 226.316,178.863 225.283 C 178.364 224.462,175.175 223.726,173.307 224.002 M207.609 224.312 C 206.829 224.944,206.742 225.275,206.983 226.700 C 207.310 228.634,208.121 229.529,208.935 228.854 C 209.430 228.444,210.617 225.205,210.328 225.057 C 210.257 225.021,209.821 224.674,209.357 224.285 C 208.551 223.610,208.475 223.611,207.609 224.312 M177.224 225.975 C 177.788 226.539,179.083 227.758,180.103 228.684 C 182.131 230.525,182.662 232.032,182.282 234.868 C 181.702 239.189,172.871 244.343,171.632 241.084 C 171.194 239.932,170.484 239.337,169.150 239.002 C 166.721 238.392,167.156 228.731,169.657 227.731 C 170.551 227.373,171.410 226.670,171.703 226.057 C 172.598 224.185,175.393 224.144,177.224 225.975 M238.567 224.643 C 239.229 224.897,239.438 226.206,238.873 226.555 C 238.693 226.666,237.662 226.331,236.581 225.811 L 234.618 224.864 236.009 224.696 C 236.774 224.604,237.520 224.499,237.667 224.464 C 237.814 224.429,238.219 224.509,238.567 224.643 M209.043 225.433 C 208.909 225.781,208.800 226.321,208.800 226.633 C 208.800 226.945,208.620 227.200,208.400 227.200 C 208.180 227.200,208.000 226.660,208.000 226.000 C 208.000 225.164,208.195 224.800,208.643 224.800 C 209.065 224.800,209.202 225.018,209.043 225.433 M207.462 237.931 C 205.420 240.188,207.213 243.588,210.004 242.752 C 213.353 241.748,212.101 237.200,208.475 237.200 C 208.282 237.200,207.826 237.529,207.462 237.931 M209.043 238.469 C 209.814 239.717,209.888 241.936,209.164 242.125 C 208.147 242.391,208.000 242.115,208.000 239.933 C 208.000 238.078,208.429 237.476,209.043 238.469 " stroke="none" fill="#525969" fill-rule="evenodd"></path><path id="path4" d="M86.144 141.077 C 85.186 141.555,84.831 142.047,84.648 143.152 C 84.207 145.821,84.368 148.341,85.014 148.884 C 85.352 149.168,85.847 149.588,86.114 149.817 C 86.381 150.046,87.140 150.457,87.800 150.729 C 88.460 151.001,89.832 152.002,90.849 152.954 L 92.699 154.684 92.905 165.442 C 93.151 178.246,93.357 179.287,96.318 182.706 L 98.370 185.074 97.630 187.037 C 97.222 188.117,96.225 189.767,95.413 190.703 C 93.324 193.116,92.803 196.684,92.802 208.611 C 92.800 219.237,92.978 218.659,88.883 221.340 C 84.156 224.436,83.935 224.895,84.653 230.131 C 85.542 236.622,98.285 232.221,102.301 224.035 L 103.398 221.800 103.599 209.959 L 103.800 198.118 106.275 195.659 C 107.637 194.307,108.936 193.200,109.161 193.200 C 109.823 193.200,112.390 190.779,113.020 189.560 C 114.740 186.235,113.721 183.801,108.533 178.839 C 106.370 176.771,104.421 174.791,104.202 174.439 C 103.981 174.084,103.691 168.832,103.548 162.600 C 103.262 150.110,103.209 149.816,100.681 146.595 C 96.414 141.159,90.490 138.910,86.144 141.077 M92.733 141.441 C 93.246 141.546,94.571 142.255,95.678 143.016 C 96.784 143.777,97.846 144.400,98.037 144.400 C 98.228 144.400,98.728 145.075,99.149 145.900 C 99.570 146.725,100.296 147.745,100.761 148.166 C 102.437 149.681,102.799 152.231,102.810 162.573 C 102.822 175.199,102.537 174.284,108.163 179.756 L 112.800 184.265 112.800 186.519 C 112.800 188.989,110.778 191.585,107.700 193.066 C 106.985 193.410,106.400 193.835,106.400 194.012 C 106.400 194.188,105.842 194.842,105.159 195.466 C 102.906 197.525,102.800 198.165,102.798 209.687 C 102.795 221.947,102.554 223.240,99.697 226.320 C 99.421 226.618,99.011 227.206,98.786 227.627 C 98.560 228.048,97.797 228.689,97.088 229.052 C 96.380 229.415,95.710 229.825,95.600 229.964 C 95.490 230.103,94.950 230.445,94.400 230.724 C 93.850 231.003,92.950 231.502,92.400 231.833 C 91.422 232.420,87.141 232.474,86.573 231.906 C 86.438 231.772,86.229 230.206,86.107 228.426 C 85.848 224.649,85.916 224.531,89.789 222.007 C 93.597 219.526,93.558 219.677,93.739 206.600 C 93.904 194.689,94.114 193.184,95.833 191.570 C 96.401 191.037,97.486 189.367,98.243 187.859 L 99.619 185.118 98.273 183.628 C 97.533 182.808,96.589 181.567,96.177 180.869 C 95.765 180.171,95.295 179.600,95.133 179.600 C 94.273 179.600,93.891 175.805,93.707 165.450 L 93.508 154.301 92.105 152.748 C 91.334 151.894,89.644 150.631,88.351 149.942 L 86.000 148.689 86.000 146.394 C 86.000 141.001,86.995 140.268,92.733 141.441 M279.218 143.882 C 278.457 143.982,277.377 144.383,276.818 144.775 C 276.258 145.167,274.856 145.797,273.702 146.175 C 271.281 146.969,267.105 150.297,266.402 151.994 C 266.146 152.614,265.508 153.523,264.984 154.015 C 262.880 155.992,262.378 169.082,264.315 171.471 C 264.818 172.092,265.538 173.135,265.915 173.789 C 266.567 174.922,267.682 176.120,270.247 178.446 C 274.968 182.727,287.911 182.595,293.284 178.211 C 294.100 177.545,295.258 176.623,295.857 176.162 L 296.945 175.325 297.122 168.539 L 297.298 161.754 296.018 160.677 C 294.197 159.145,285.219 159.037,282.600 160.517 C 279.427 162.309,280.208 166.254,283.919 167.188 C 286.569 167.855,286.787 168.116,286.302 170.025 C 285.481 173.263,280.771 173.683,277.307 170.827 C 276.488 170.152,275.611 169.600,275.358 169.600 C 274.028 169.600,273.042 165.017,273.467 160.813 C 274.093 154.616,282.648 151.183,286.721 155.493 C 287.845 156.682,288.227 156.855,289.271 156.646 C 289.947 156.511,290.745 156.400,291.044 156.400 C 291.343 156.400,292.383 155.388,293.353 154.151 L 295.118 151.903 294.178 150.030 C 292.963 147.612,292.251 147.010,289.722 146.267 C 288.579 145.931,287.139 145.297,286.522 144.858 C 285.347 144.023,281.783 143.547,279.218 143.882 M314.884 143.973 C 314.160 144.156,313.260 144.574,312.884 144.901 C 312.508 145.229,311.210 145.819,310.000 146.213 C 307.540 147.014,303.883 149.898,302.918 151.800 C 302.583 152.460,301.902 153.450,301.404 154.000 C 298.752 156.933,299.024 169.729,301.803 172.800 C 302.301 173.350,303.001 174.380,303.358 175.088 C 303.716 175.797,304.411 176.589,304.904 176.850 C 305.397 177.111,306.551 177.982,307.470 178.786 C 308.731 179.890,309.758 180.372,311.670 180.757 C 313.061 181.038,315.071 181.443,316.136 181.658 C 318.331 182.102,324.918 180.873,326.850 179.659 C 331.398 176.802,332.539 175.611,333.998 172.200 C 334.469 171.100,335.229 169.799,335.687 169.310 C 337.295 167.593,337.208 158.408,335.569 156.769 C 335.136 156.336,334.423 155.021,333.983 153.847 C 332.867 150.864,328.954 147.114,326.060 146.255 C 324.912 145.914,323.477 145.282,322.870 144.850 C 321.603 143.947,316.988 143.440,314.884 143.973 M205.705 145.216 C 204.054 146.429,203.506 147.492,202.973 150.514 C 202.826 151.346,202.283 152.650,201.766 153.411 C 201.250 154.173,200.356 156.341,199.779 158.230 C 199.203 160.119,198.314 162.281,197.803 163.033 C 197.293 163.786,196.747 165.346,196.591 166.501 C 196.281 168.801,195.885 169.777,194.757 171.019 C 193.454 172.454,192.228 178.278,192.985 179.433 C 194.613 181.917,199.671 181.297,202.767 178.233 L 205.023 176.000 208.480 176.000 L 211.938 176.000 213.375 177.679 C 216.561 181.401,222.325 182.050,223.946 178.869 C 224.400 177.978,223.079 172.752,222.035 171.309 C 221.594 170.699,220.883 168.872,220.454 167.249 C 220.026 165.626,219.309 163.803,218.861 163.197 C 218.413 162.591,217.613 160.467,217.084 158.478 C 216.498 156.274,215.726 154.390,215.110 153.658 C 214.509 152.943,213.983 151.678,213.811 150.534 C 213.006 145.164,209.184 142.657,205.705 145.216 M229.669 144.456 C 226.979 145.230,226.842 146.137,226.781 163.532 L 226.728 178.828 227.841 179.704 C 228.770 180.434,229.479 180.581,232.112 180.590 C 236.614 180.604,236.790 180.339,236.832 173.456 C 236.873 166.732,238.067 162.225,239.054 165.067 C 239.194 165.470,239.995 166.520,240.834 167.400 C 241.673 168.280,244.028 170.890,246.069 173.200 C 253.057 181.110,254.271 181.989,257.149 181.214 C 260.011 180.443,260.000 180.511,260.000 163.309 C 260.000 146.258,260.117 146.936,256.935 145.572 C 252.147 143.520,250.004 145.893,250.001 153.251 C 250.000 158.087,249.337 161.506,248.475 161.128 C 248.163 160.991,244.886 157.470,240.000 152.020 C 236.679 148.316,235.579 147.218,233.269 145.300 C 231.566 143.886,231.609 143.897,229.669 144.456 M135.857 145.362 C 133.207 146.183,133.230 146.025,133.214 163.318 L 133.200 178.836 134.227 179.863 L 135.253 180.890 145.004 180.739 L 154.756 180.589 157.158 178.894 C 158.480 177.962,159.728 177.200,159.932 177.200 C 160.548 177.200,163.056 173.897,164.046 171.783 C 164.557 170.692,165.316 169.521,165.733 169.179 C 167.222 167.961,167.163 158.570,165.657 156.953 C 165.266 156.533,164.491 155.197,163.936 153.984 C 162.255 150.313,158.575 147.404,154.356 146.411 C 152.510 145.976,150.232 145.436,149.294 145.210 C 147.006 144.660,137.787 144.764,135.857 145.362 M173.600 145.639 C 171.065 147.153,170.334 148.822,171.045 151.473 C 171.372 152.691,173.525 153.600,176.084 153.600 C 179.833 153.600,179.810 153.546,179.737 162.268 C 179.659 171.725,179.545 172.161,177.120 172.320 C 175.694 172.414,174.966 172.217,173.791 171.420 C 171.818 170.081,171.782 170.090,169.057 172.566 C 166.279 175.089,166.226 176.226,168.767 178.767 C 173.682 183.682,184.701 181.892,187.624 175.704 C 188.119 174.657,188.811 173.466,189.162 173.059 C 190.106 171.962,190.352 149.041,189.438 147.274 C 188.151 144.784,176.965 143.630,173.600 145.639 M288.000 147.039 C 291.711 148.240,291.710 148.240,292.718 150.229 L 293.544 151.858 292.672 152.910 C 291.236 154.645,288.502 155.523,287.774 154.484 C 286.581 152.781,279.808 152.051,277.287 153.355 C 272.917 155.615,271.014 161.226,272.590 167.200 C 273.721 171.485,278.440 174.219,283.635 173.597 C 288.884 172.969,290.066 167.710,285.250 166.413 C 281.936 165.521,281.341 162.143,284.325 161.159 C 286.272 160.516,295.173 160.914,295.649 161.665 C 296.039 162.281,296.122 171.690,295.753 173.535 C 294.938 177.610,284.161 181.448,277.706 179.961 C 273.427 178.976,272.732 178.717,271.493 177.641 C 270.782 177.023,269.795 176.304,269.299 176.044 C 268.804 175.784,267.928 174.642,267.352 173.506 C 266.776 172.369,265.832 170.724,265.253 169.849 C 263.804 167.660,263.643 158.840,265.017 156.933 C 265.466 156.310,266.365 154.764,267.016 153.497 C 267.667 152.231,268.507 151.096,268.882 150.976 C 269.258 150.856,270.049 150.182,270.640 149.479 C 271.868 148.020,272.978 147.482,276.504 146.638 C 277.877 146.310,279.360 145.955,279.800 145.850 C 281.230 145.509,284.932 146.046,288.000 147.039 M324.420 147.054 C 326.811 147.826,327.885 148.409,328.705 149.383 C 329.307 150.098,330.269 150.983,330.843 151.350 C 331.417 151.717,332.199 152.779,332.580 153.709 C 332.962 154.639,333.733 156.390,334.294 157.600 C 335.834 160.922,335.997 164.838,334.702 167.420 C 334.156 168.509,333.495 170.063,333.233 170.873 C 332.008 174.657,327.354 178.533,322.687 179.657 C 316.698 181.098,311.637 180.203,307.156 176.910 C 304.672 175.084,304.829 175.290,301.601 169.647 C 300.560 167.828,300.757 158.244,301.876 156.200 C 302.358 155.320,303.136 153.826,303.604 152.880 C 304.072 151.933,304.870 151.002,305.375 150.809 C 305.881 150.617,306.733 149.901,307.267 149.218 C 309.772 146.018,317.991 144.981,324.420 147.054 M210.407 147.052 C 211.613 147.850,212.098 148.503,212.414 149.752 C 213.274 153.157,214.072 155.327,214.985 156.741 C 215.502 157.544,216.129 159.186,216.378 160.391 C 216.627 161.596,217.263 163.320,217.792 164.223 C 218.322 165.126,218.961 166.750,219.213 167.832 C 219.687 169.867,220.646 172.155,221.462 173.200 C 222.549 174.593,223.168 178.305,222.425 178.978 C 220.541 180.682,217.380 179.629,214.386 176.300 L 212.318 174.000 208.399 174.000 L 204.480 174.000 202.389 176.300 C 199.395 179.592,196.359 180.628,194.243 179.081 C 193.336 178.418,194.105 175.042,195.693 172.712 C 196.251 171.894,197.020 169.914,197.401 168.312 C 197.782 166.710,198.385 164.950,198.740 164.400 C 199.944 162.536,200.291 161.720,200.801 159.558 C 201.080 158.371,201.752 156.597,202.294 155.615 C 202.836 154.633,203.598 152.574,203.988 151.040 C 205.101 146.655,207.529 145.147,210.407 147.052 M233.673 147.405 C 234.703 148.062,235.693 148.902,235.873 149.272 C 236.191 149.926,241.068 155.423,244.117 158.565 C 244.952 159.425,246.182 160.820,246.851 161.665 C 248.228 163.403,248.716 163.520,250.056 162.436 C 250.966 161.700,251.007 161.427,251.200 154.748 L 251.400 147.823 253.250 147.137 C 255.039 146.474,255.155 146.478,256.750 147.267 L 258.400 148.084 258.400 163.381 L 258.400 178.679 256.826 179.388 C 255.033 180.197,253.321 179.507,251.577 177.271 C 251.118 176.682,249.247 174.580,247.420 172.600 C 245.593 170.620,243.158 167.920,242.007 166.600 C 238.877 163.007,238.531 162.757,237.400 163.273 C 235.973 163.923,235.874 164.415,235.688 171.800 C 235.583 175.981,235.354 178.702,235.092 178.865 C 234.037 179.522,231.213 179.616,229.834 179.040 L 228.400 178.441 228.400 163.226 L 228.400 148.012 229.900 147.031 C 230.725 146.491,231.490 146.086,231.600 146.130 C 231.710 146.174,232.643 146.748,233.673 147.405 M153.400 147.263 C 157.100 148.024,161.881 151.985,163.158 155.351 C 163.586 156.478,164.259 158.030,164.652 158.800 C 166.004 161.446,165.868 164.565,164.238 168.265 C 163.447 170.060,162.800 171.681,162.800 171.866 C 162.800 172.439,158.450 176.800,157.879 176.800 C 157.582 176.800,156.929 177.237,156.427 177.771 C 154.809 179.494,136.359 180.521,134.815 178.975 C 134.527 178.687,134.424 173.555,134.495 162.978 L 134.600 147.405 136.600 146.913 C 138.887 146.350,150.093 146.584,153.400 147.263 M186.815 147.300 L 188.600 148.200 188.708 156.807 C 188.895 171.826,186.862 178.370,181.687 179.409 C 181.089 179.529,180.047 179.802,179.372 180.014 C 177.142 180.715,175.491 180.522,171.494 179.093 C 170.886 178.876,169.830 177.872,169.148 176.862 L 167.909 175.025 168.855 174.417 C 169.375 174.082,170.263 173.356,170.828 172.804 L 171.856 171.800 173.187 172.700 C 174.148 173.350,175.102 173.600,176.615 173.600 C 180.685 173.600,181.156 172.373,181.183 161.681 L 181.200 154.762 180.142 153.781 C 179.269 152.972,178.673 152.800,176.742 152.800 C 172.896 152.800,171.117 149.322,173.900 147.246 C 175.608 145.972,184.253 146.008,186.815 147.300 M316.200 152.787 C 305.566 154.079,305.855 172.247,316.531 173.617 C 322.432 174.374,327.635 169.577,327.583 163.429 C 327.553 159.981,326.978 157.915,325.737 156.802 C 325.112 156.240,324.291 155.306,323.914 154.726 C 322.881 153.138,319.765 152.354,316.200 152.787 M143.300 153.596 L 142.000 154.388 142.000 162.825 L 142.000 171.262 143.169 172.431 C 145.959 175.221,154.438 172.459,156.617 168.050 C 157.521 166.224,157.793 162.657,157.235 159.970 C 156.132 154.658,147.805 150.849,143.300 153.596 M149.308 154.208 C 150.854 154.405,151.490 154.748,152.663 156.016 C 153.460 156.877,154.419 157.679,154.795 157.798 C 156.265 158.265,156.984 164.510,155.825 166.751 C 154.490 169.333,150.009 171.938,146.617 172.103 C 143.654 172.248,143.433 171.607,143.267 162.426 C 143.118 154.130,143.371 153.384,146.200 153.792 C 146.860 153.887,148.258 154.074,149.308 154.208 M320.081 153.963 C 324.598 155.012,327.918 162.392,325.882 166.857 C 325.274 168.190,321.273 171.840,319.810 172.396 C 316.599 173.617,311.200 170.525,310.388 167.000 C 308.401 158.381,312.923 152.300,320.081 153.963 M207.195 161.700 C 205.395 164.652,205.970 167.600,208.347 167.600 C 211.036 167.600,211.652 164.482,209.546 161.524 C 208.520 160.083,208.165 160.110,207.195 161.700 M209.220 163.647 C 209.785 165.012,209.406 166.103,208.291 166.323 C 207.412 166.496,207.034 164.966,207.612 163.571 C 208.230 162.079,208.577 162.095,209.220 163.647 M64.089 164.223 C 63.600 164.565,63.200 165.071,63.200 165.348 C 63.200 165.624,62.660 166.368,62.000 167.000 C 59.433 169.460,61.437 175.762,65.111 176.782 C 69.046 177.875,72.466 177.033,73.648 174.681 C 74.113 173.756,74.766 172.689,75.100 172.309 C 76.275 170.972,73.859 165.209,71.621 164.011 C 70.386 163.350,65.124 163.498,64.089 164.223 M69.880 164.415 C 73.963 165.299,75.110 170.135,72.437 175.191 C 71.641 176.696,65.611 176.884,64.282 175.446 C 61.461 172.394,60.811 169.277,62.638 167.570 C 63.209 167.036,63.928 166.116,64.236 165.524 C 64.660 164.708,65.158 164.411,66.298 164.292 C 67.124 164.205,67.836 164.104,67.880 164.067 C 67.924 164.030,68.824 164.187,69.880 164.415 M65.663 195.977 C 63.961 196.406,61.748 198.540,61.161 200.319 C 58.739 207.658,69.218 213.259,73.465 206.896 C 74.963 204.652,75.951 201.670,75.330 201.269 C 75.101 201.121,74.535 200.139,74.073 199.086 C 72.875 196.359,69.341 195.052,65.663 195.977 M70.600 197.035 C 75.271 198.096,74.931 206.839,70.157 208.414 C 63.628 210.569,58.918 202.399,64.024 197.778 C 64.816 197.061,67.627 196.389,68.800 196.636 C 69.130 196.705,69.940 196.885,70.600 197.035 M173.400 214.330 C 172.520 214.401,171.530 214.691,171.200 214.974 C 170.870 215.257,169.340 215.815,167.800 216.214 C 164.039 217.189,159.371 221.383,157.354 225.600 C 156.487 227.413,156.115 236.098,156.769 239.250 C 157.690 243.687,163.188 249.489,167.753 250.841 C 169.319 251.304,170.813 251.856,171.072 252.068 C 172.008 252.829,175.718 252.909,177.600 252.208 C 178.590 251.840,180.300 251.255,181.400 250.910 C 185.623 249.585,188.920 246.599,191.461 241.800 L 193.367 238.200 193.379 233.360 C 193.392 228.784,193.335 228.436,192.339 226.960 C 191.760 226.102,191.080 224.749,190.829 223.952 C 189.985 221.277,185.488 217.438,181.982 216.400 C 180.342 215.914,178.813 215.365,178.584 215.179 C 177.924 214.644,175.146 214.188,173.400 214.330 M234.042 214.949 C 233.791 215.251,232.543 215.791,231.268 216.149 C 228.585 216.902,227.178 218.184,226.165 220.800 C 225.781 221.790,225.119 223.104,224.693 223.719 C 222.476 226.923,228.223 235.766,233.550 237.348 C 236.155 238.122,239.482 241.473,238.565 242.400 C 237.636 243.339,233.261 243.209,231.832 242.200 C 228.155 239.602,228.138 239.599,226.473 241.000 C 224.393 242.750,222.415 242.076,221.775 239.400 C 221.321 237.499,219.534 233.053,218.984 232.456 C 218.579 232.016,218.666 231.643,219.442 230.500 C 220.510 228.926,220.833 223.557,219.958 221.922 C 217.469 217.272,213.739 215.831,204.132 215.811 C 199.100 215.800,198.818 215.843,197.832 216.770 L 196.800 217.739 196.800 233.447 L 196.800 249.155 197.717 250.222 C 199.236 251.987,208.533 252.067,214.897 250.370 C 216.573 249.923,220.800 246.140,220.800 245.087 C 220.800 244.028,221.687 242.400,222.264 242.400 C 222.565 242.400,222.800 242.827,222.800 243.374 C 222.800 249.077,234.604 255.155,239.705 252.078 C 240.417 251.649,241.655 251.088,242.455 250.832 C 251.179 248.046,249.651 233.288,240.263 229.650 C 239.340 229.292,237.896 228.460,237.053 227.800 C 236.210 227.140,235.133 226.297,234.660 225.926 C 233.878 225.313,233.857 225.194,234.428 224.612 C 235.957 223.055,239.732 223.521,240.977 225.421 C 241.532 226.267,241.722 226.318,242.896 225.925 C 249.193 223.821,248.920 218.012,242.437 216.140 C 241.207 215.784,239.845 215.248,239.411 214.947 C 238.372 214.227,234.640 214.228,234.042 214.949 M136.812 216.233 C 134.507 217.233,134.000 217.918,134.000 220.033 C 134.000 222.884,135.703 223.993,140.091 223.998 C 143.170 224.001,143.313 224.458,143.143 233.733 C 142.974 242.895,142.943 242.977,139.713 242.709 C 138.266 242.589,137.301 242.259,136.671 241.667 C 135.376 240.450,135.033 240.543,132.415 242.819 L 130.094 244.838 130.470 246.519 C 130.963 248.721,132.453 250.222,134.965 251.047 C 136.084 251.415,137.355 251.959,137.789 252.258 C 138.833 252.975,141.609 252.949,142.661 252.212 C 143.123 251.889,144.353 251.335,145.395 250.981 C 148.068 250.074,149.782 248.336,151.613 244.677 L 153.200 241.507 153.200 229.843 C 153.200 216.473,153.262 216.737,149.981 216.033 C 146.912 215.375,138.496 215.503,136.812 216.233 M179.875 217.027 C 186.646 218.584,192.128 225.882,192.174 233.400 C 192.216 240.194,186.790 248.156,181.126 249.614 C 180.397 249.801,179.080 250.141,178.200 250.368 C 167.551 253.117,157.613 244.949,157.604 233.439 C 157.599 227.675,159.622 222.674,162.721 220.790 C 163.396 220.379,164.134 219.698,164.359 219.276 C 165.598 216.961,174.181 215.717,179.875 217.027 M241.016 217.020 C 244.743 217.990,247.192 220.587,246.091 222.400 C 245.504 223.366,241.930 224.399,241.200 223.813 C 238.199 221.405,232.318 222.669,233.073 225.559 C 233.421 226.887,237.619 230.214,239.900 230.969 C 241.055 231.351,242.000 231.834,242.000 232.040 C 242.000 232.247,242.803 232.982,243.784 233.674 C 246.437 235.544,247.549 239.649,246.557 243.915 C 244.769 251.606,232.596 253.540,226.269 247.137 C 224.041 244.882,224.030 245.090,226.495 242.839 L 228.389 241.108 229.789 242.337 C 232.479 244.699,237.534 245.048,239.570 243.012 L 240.576 242.006 239.826 240.736 C 238.690 238.813,236.517 237.080,234.258 236.295 C 233.142 235.908,231.760 235.098,231.189 234.495 C 230.617 233.893,229.613 233.115,228.958 232.766 C 228.117 232.319,227.606 231.613,227.220 230.366 C 224.148 220.426,230.498 214.283,241.016 217.020 M150.541 217.703 L 152.081 218.393 151.896 229.897 L 151.711 241.400 150.276 244.267 C 146.737 251.335,135.833 253.259,132.518 247.400 C 131.305 245.256,131.331 245.143,133.371 243.705 L 135.143 242.457 136.656 243.228 C 141.069 245.478,143.773 243.875,144.196 238.759 C 145.215 226.410,144.197 222.813,139.678 222.787 C 135.790 222.766,134.281 219.459,137.300 217.579 C 139.033 216.500,148.042 216.585,150.541 217.703 M213.537 217.818 C 214.672 218.155,215.600 218.604,215.600 218.816 C 215.600 219.028,216.350 219.929,217.267 220.819 C 219.651 223.132,220.032 227.663,218.051 230.143 C 216.783 231.731,216.793 232.250,218.126 233.929 C 219.799 236.036,220.919 241.427,220.033 243.105 C 219.832 243.487,219.450 244.385,219.185 245.100 C 218.920 245.815,218.582 246.400,218.435 246.400 C 218.287 246.400,217.522 247.008,216.734 247.752 C 214.537 249.824,203.940 251.071,200.200 249.697 L 198.200 248.962 198.200 233.381 L 198.200 217.800 200.000 217.304 C 202.324 216.663,210.721 216.982,213.537 217.818 M171.673 223.086 C 165.471 224.269,163.087 236.586,168.142 241.323 C 173.771 246.596,182.621 243.806,183.991 236.326 C 185.597 227.561,179.962 221.504,171.673 223.086 M206.470 223.726 C 205.811 224.427,205.600 225.147,205.600 226.699 C 205.600 231.493,210.676 231.488,211.551 226.693 C 212.131 223.514,208.604 221.454,206.470 223.726 M178.863 225.283 C 179.491 226.316,179.823 226.654,181.050 227.511 C 184.337 229.805,183.913 236.614,180.256 240.238 C 176.639 243.824,173.092 243.952,169.381 240.632 L 167.000 238.502 167.000 233.416 L 167.000 228.330 168.200 227.345 C 168.860 226.803,169.898 225.885,170.507 225.306 C 172.345 223.557,177.806 223.542,178.863 225.283 M210.328 225.057 C 210.617 225.205,209.430 228.444,208.935 228.854 C 208.121 229.529,207.310 228.634,206.983 226.700 C 206.606 224.470,207.948 223.105,209.357 224.285 C 209.821 224.674,210.257 225.021,210.328 225.057 M207.339 236.598 C 204.892 237.627,204.782 242.550,207.177 243.788 C 208.524 244.484,211.381 243.944,212.648 242.754 C 215.522 240.055,211.156 234.993,207.339 236.598 M210.189 237.770 C 211.559 238.342,212.416 240.339,211.886 241.721 C 210.936 244.195,206.800 243.014,206.800 240.270 C 206.800 237.605,207.883 236.806,210.189 237.770 " stroke="none" fill="#84848c" fill-rule="evenodd"></path></g></svg>